<svg xmlns="http://www.w3.org/2000/svg" viewBox="0 0 400 240" width="400" height="240">
  <defs>
    <linearGradient id="bgecom2" x1="0%" y1="0%" x2="100%" y2="100%">
      <stop offset="0%" style="stop-color:#E6F7F2"/>
      <stop offset="100%" style="stop-color:#C8EFE3"/>
    </linearGradient>
  </defs>
  <rect width="400" height="240" fill="url(#bgecom2)" rx="16"/>
  
  <!-- phone with cart -->
  <rect x="140" y="20" width="120" height="200" rx="18" fill="#0A1F13" opacity=".85"/>
  <rect x="148" y="32" width="104" height="176" rx="12" fill="#0F2E1E"/>
  <!-- ecom screen -->
  <rect x="152" y="40" width="96" height="162" rx="8" fill="#1A3A28"/>
  <!-- header bar -->
  <rect x="152" y="40" width="96" height="20" rx="8" fill="#008A66" opacity=".6"/>
  <rect x="160" y="47" width="40" height="6" rx="2" fill="#fff" opacity=".4"/>
  <rect x="228" y="45" width="12" height="12" rx="3" fill="#34D399" opacity=".5"/>
  <!-- product cards -->
  <rect x="158" y="68" width="38" height="48" rx="5" fill="#008A66" opacity=".4"/>
  <rect x="202" y="68" width="38" height="48" rx="5" fill="#34D399" opacity=".4"/>
  <rect x="158" y="122" width="38" height="48" rx="5" fill="#34D399" opacity=".3"/>
  <rect x="202" y="122" width="38" height="48" rx="5" fill="#008A66" opacity=".3"/>
  <!-- buy button -->
  <rect x="158" y="178" width="82" height="16" rx="6" fill="#008A66" opacity=".8"/>
  <rect x="176" y="181" width="46" height="10" rx="3" fill="#fff" opacity=".3"/>
  <!-- notch -->
  <rect x="185" y="30" width="30" height="6" rx="3" fill="#0A1F13"/>
  <!-- floating icons -->
  <rect x="60" y="80" width="60" height="60" rx="12" fill="#34D399" opacity=".15"/>
  <text x="78" y="118" font-size="30" fill="#008A66" opacity=".4">📦</text>
  <rect x="290" y="100" width="55" height="55" rx="12" fill="#008A66" opacity=".12"/>
  <text x="304" y="136" font-size="28" fill="#34D399" opacity=".4">💳</text>

</svg>