<svg xmlns="http://www.w3.org/2000/svg" viewBox="0 0 400 240" width="400" height="240">
  <defs>
    <linearGradient id="bgedu2" x1="0%" y1="0%" x2="100%" y2="100%">
      <stop offset="0%" style="stop-color:#F0FBF7"/>
      <stop offset="100%" style="stop-color:#C8EFE3"/>
    </linearGradient>
  </defs>
  <rect width="400" height="240" fill="url(#bgedu2)" rx="16"/>
  
  <!-- open book -->
  <path d="M60 80 Q60 60 200 55 Q340 60 340 80 L340 190 Q340 205 200 200 Q60 205 60 190 Z" fill="#fff" opacity=".6"/>
  <!-- spine -->
  <rect x="196" y="55" width="8" height="145" rx="3" fill="#008A66" opacity=".5"/>
  <!-- left page lines -->
  <rect x="80" y="90" width="100" height="6" rx="2" fill="#0A1F13" opacity=".2"/>
  <rect x="80" y="102" width="110" height="6" rx="2" fill="#0A1F13" opacity=".2"/>
  <rect x="80" y="114" width="90" height="6" rx="2" fill="#0A1F13" opacity=".2"/>
  <rect x="80" y="126" width="105" height="6" rx="2" fill="#0A1F13" opacity=".2"/>
  <rect x="80" y="138" width="85" height="6" rx="2" fill="#0A1F13" opacity=".15"/>
  <rect x="80" y="150" width="100" height="6" rx="2" fill="#0A1F13" opacity=".15"/>
  <rect x="80" y="162" width="70" height="6" rx="2" fill="#0A1F13" opacity=".15"/>
  <!-- right page lines -->
  <rect x="220" y="90" width="100" height="6" rx="2" fill="#0A1F13" opacity=".2"/>
  <rect x="220" y="102" width="85" height="6" rx="2" fill="#0A1F13" opacity=".2"/>
  <rect x="220" y="114" width="110" height="6" rx="2" fill="#0A1F13" opacity=".2"/>
  <rect x="220" y="126" width="90" height="6" rx="2" fill="#0A1F13" opacity=".15"/>
  <!-- chart on right page -->
  <rect x="240" y="138" width="12" height="30" rx="2" fill="#008A66" opacity=".5"/>
  <rect x="258" y="128" width="12" height="40" rx="2" fill="#34D399" opacity=".5"/>
  <rect x="276" y="133" width="12" height="35" rx="2" fill="#008A66" opacity=".4"/>
  <rect x="294" y="120" width="12" height="48" rx="2" fill="#34D399" opacity=".5"/>
  <!-- bookmark -->
  <path d="M295 55 L295 90 L285 83 L275 90 L275 55 Z" fill="#008A66" opacity=".6"/>

</svg>