<svg xmlns="http://www.w3.org/2000/svg" viewBox="0 0 400 240" width="400" height="240">
  <defs>
    <linearGradient id="bghbf2" x1="0%" y1="0%" x2="100%" y2="100%">
      <stop offset="0%" style="stop-color:#E6F7F2"/>
      <stop offset="100%" style="stop-color:#C8EFE3"/>
    </linearGradient>
  </defs>
  <rect width="400" height="240" fill="url(#bghbf2)" rx="16"/>
  
  <!-- mirror / vanity -->
  <rect x="100" y="30" width="200" height="150" rx="16" fill="#fff" opacity=".5"/>
  <rect x="108" y="38" width="184" height="134" rx="12" fill="#E6F7F2" opacity=".6"/>
  <!-- reflection shimmer -->
  <path d="M130 50 Q160 80 130 110" fill="none" stroke="#fff" stroke-width="8" opacity=".3" stroke-linecap="round"/>
  <!-- vanity table -->
  <rect x="80" y="180" width="240" height="14" rx="6" fill="#0A1F13" opacity=".5"/>
  <!-- products on table -->
  <rect x="105" y="155" width="18" height="30" rx="6" fill="#008A66" opacity=".8"/>
  <rect x="130" y="160" width="14" height="25" rx="5" fill="#34D399" opacity=".7"/>
  <rect x="152" y="153" width="20" height="32" rx="6" fill="#0A1F13" opacity=".6"/>
  <rect x="180" y="158" width="16" height="27" rx="5" fill="#008A66" opacity=".6"/>
  <!-- circle mirror -->
  <circle cx="200" cy="100" r="45" fill="none" stroke="#34D399" stroke-width="4" opacity=".5"/>
  <circle cx="200" cy="100" r="38" fill="#fff" opacity=".2"/>
  <!-- flowers accent -->
  <circle cx="290" cy="80" r="18" fill="#34D399" opacity=".3"/>
  <circle cx="298" cy="70" r="12" fill="#008A66" opacity=".3"/>
  <circle cx="278" cy="75" r="10" fill="#34D399" opacity=".4"/>
  <circle cx="290" cy="80" r="5" fill="#fff" opacity=".5"/>

</svg>