<svg xmlns="http://www.w3.org/2000/svg" viewBox="0 0 400 240" width="400" height="240">
  <defs>
    <linearGradient id="bghbf3" x1="0%" y1="0%" x2="100%" y2="100%">
      <stop offset="0%" style="stop-color:#F0FBF7"/>
      <stop offset="100%" style="stop-color:#C8EFE3"/>
    </linearGradient>
  </defs>
  <rect width="400" height="240" fill="url(#bghbf3)" rx="16"/>
  
  <!-- cross / medical -->
  <rect x="178" y="60" width="44" height="120" rx="10" fill="#008A66" opacity=".8"/>
  <rect x="140" y="98" width="120" height="44" rx="10" fill="#008A66" opacity=".8"/>
  <rect x="182" y="64" width="36" height="112" rx="8" fill="#34D399" opacity=".3"/>
  <rect x="144" y="102" width="112" height="36" rx="8" fill="#34D399" opacity=".3"/>
  <!-- pills -->
  <ellipse cx="80" cy="80" rx="22" ry="12" fill="#34D399" opacity=".6" transform="rotate(-30,80,80)"/>
  <line x1="67" y1="71" x2="93" y2="89" stroke="#fff" stroke-width="2" opacity=".5"/>
  <ellipse cx="320" cy="85" rx="22" ry="12" fill="#0A1F13" opacity=".5" transform="rotate(20,320,85)"/>
  <line x1="307" y1="78" x2="333" y2="92" stroke="#34D399" stroke-width="2" opacity=".5"/>
  <!-- heartbeat -->
  <path d="M40 170 Q55 150 65 170 Q75 190 90 150 Q105 110 115 170 Q125 200 135 170" fill="none" stroke="#34D399" stroke-width="2.5" opacity=".6" stroke-linecap="round"/>
  <!-- stethoscope -->
  <path d="M290 140 Q310 140 320 155 Q330 170 320 185 Q310 200 295 200 Q280 200 275 188" fill="none" stroke="#0A1F13" stroke-width="5" opacity=".5" stroke-linecap="round"/>
  <circle cx="272" cy="185" r="10" fill="#0A1F13" opacity=".4"/>
  <circle cx="290" cy="128" r="7" fill="#34D399" opacity=".5"/>
  <circle cx="300" cy="128" r="7" fill="#34D399" opacity=".5"/>

</svg>