<svg xmlns="http://www.w3.org/2000/svg" viewBox="0 0 400 240" width="400" height="240">
  <defs>
    <linearGradient id="bgind2" x1="0%" y1="0%" x2="100%" y2="100%">
      <stop offset="0%" style="stop-color:#F0FBF7"/>
      <stop offset="100%" style="stop-color:#C8EFE3"/>
    </linearGradient>
  </defs>
  <rect width="400" height="240" fill="url(#bgind2)" rx="16"/>
  
  <!-- big gear center -->
  <circle cx="200" cy="120" r="80" fill="none" stroke="#008A66" stroke-width="10" opacity=".6"/>
  <circle cx="200" cy="120" r="60" fill="none" stroke="#34D399" stroke-width="3" opacity=".3"/>
  <circle cx="200" cy="120" r="28" fill="#008A66" opacity=".3"/>
  <circle cx="200" cy="120" r="16" fill="#0A1F13" opacity=".5"/>
  <!-- gear teeth -->
  <rect x="187" y="32" width="26" height="20" rx="5" fill="#008A66" opacity=".6"/>
  <rect x="187" y="188" width="26" height="20" rx="5" fill="#008A66" opacity=".6"/>
  <rect x="112" y="107" width="20" height="26" rx="5" fill="#008A66" opacity=".6"/>
  <rect x="268" y="107" width="20" height="26" rx="5" fill="#008A66" opacity=".6"/>
  <rect x="138" y="51" width="20" height="20" rx="4" fill="#008A66" opacity=".5" transform="rotate(-45,148,61)"/>
  <rect x="242" y="51" width="20" height="20" rx="4" fill="#008A66" opacity=".5" transform="rotate(45,252,61)"/>
  <rect x="138" y="169" width="20" height="20" rx="4" fill="#008A66" opacity=".5" transform="rotate(45,148,179)"/>
  <rect x="242" y="169" width="20" height="20" rx="4" fill="#008A66" opacity=".5" transform="rotate(-45,252,179)"/>
  <!-- small gear -->
  <circle cx="315" cy="55" r="35" fill="none" stroke="#34D399" stroke-width="7" opacity=".5"/>
  <circle cx="315" cy="55" r="16" fill="#34D399" opacity=".2"/>
  <circle cx="315" cy="55" r="8" fill="#0A1F13" opacity=".4"/>
  <rect x="308" y="14" width="14" height="12" rx="3" fill="#34D399" opacity=".5"/>
  <rect x="308" y="84" width="14" height="12" rx="3" fill="#34D399" opacity=".5"/>
  <rect x="274" y="48" width="12" height="14" rx="3" fill="#34D399" opacity=".5"/>
  <rect x="344" y="48" width="12" height="14" rx="3" fill="#34D399" opacity=".5"/>

</svg>