<svg xmlns="http://www.w3.org/2000/svg" viewBox="0 0 400 240" width="400" height="240">
  <defs>
    <linearGradient id="bgret2" x1="0%" y1="0%" x2="100%" y2="100%">
      <stop offset="0%" style="stop-color:#F0FBF7"/>
      <stop offset="100%" style="stop-color:#C8EFE3"/>
    </linearGradient>
  </defs>
  <rect width="400" height="240" fill="url(#bgret2)" rx="16"/>
  
  <!-- big bag center -->
  <rect x="140" y="80" width="120" height="130" rx="12" fill="#008A66" opacity=".85"/>
  <rect x="148" y="88" width="104" height="114" rx="8" fill="#008A66"/>
  <!-- bag handles -->
  <path d="M165 80 Q165 50 200 50 Q235 50 235 80" fill="none" stroke="#0A1F13" stroke-width="7" stroke-linecap="round" opacity=".8"/>
  <!-- bag logo area -->
  <rect x="165" y="120" width="70" height="40" rx="6" fill="#34D399" opacity=".3"/>
  <rect x="172" y="128" width="40" height="6" rx="3" fill="#fff" opacity=".5"/>
  <rect x="172" y="140" width="28" height="6" rx="3" fill="#fff" opacity=".4"/>
  <!-- small bag left -->
  <rect x="60" y="110" width="80" height="100" rx="10" fill="#34D399" opacity=".6"/>
  <path d="M75 110 Q75 85 100 85 Q125 85 125 110" fill="none" stroke="#0A1F13" stroke-width="5" stroke-linecap="round" opacity=".6"/>
  <rect x="72" y="148" width="44" height="6" rx="3" fill="#fff" opacity=".4"/>
  <!-- small bag right -->
  <rect x="260" y="120" width="75" height="90" rx="10" fill="#0A1F13" opacity=".5"/>
  <path d="M273 120 Q273 98 297 98 Q322 98 322 120" fill="none" stroke="#34D399" stroke-width="5" stroke-linecap="round" opacity=".5"/>
  <!-- stars/sparkle -->
  <text x="310" y="70" font-size="20" fill="#34D399" opacity=".5">✦</text>
  <text x="70" y="85" font-size="14" fill="#008A66" opacity=".4">✦</text>

</svg>