<svg xmlns="http://www.w3.org/2000/svg" viewBox="0 0 400 240" width="400" height="240">
  <defs>
    <linearGradient id="bgtech2" x1="0%" y1="0%" x2="100%" y2="100%">
      <stop offset="0%" style="stop-color:#F0FBF7"/>
      <stop offset="100%" style="stop-color:#C8EFE3"/>
    </linearGradient>
  </defs>
  <rect width="400" height="240" fill="url(#bgtech2)" rx="16"/>
  
  <!-- phone -->
  <rect x="155" y="30" width="90" height="170" rx="16" fill="#0A1F13" opacity=".85"/>
  <rect x="162" y="40" width="76" height="150" rx="10" fill="#0F2E1E"/>
  <!-- app screen -->
  <rect x="167" y="50" width="66" height="130" rx="6" fill="#0A1F13"/>
  <!-- app grid -->
  <rect x="173" y="60" width="18" height="18" rx="4" fill="#008A66" opacity=".8"/>
  <rect x="197" y="60" width="18" height="18" rx="4" fill="#34D399" opacity=".7"/>
  <rect x="221" y="60" width="10" height="18" rx="4" fill="#008A66" opacity=".5"/>
  <rect x="173" y="84" width="18" height="18" rx="4" fill="#34D399" opacity=".6"/>
  <rect x="197" y="84" width="18" height="18" rx="4" fill="#008A66" opacity=".7"/>
  <rect x="173" y="108" width="56" height="8" rx="3" fill="#34D399" opacity=".3"/>
  <rect x="173" y="120" width="40" height="8" rx="3" fill="#008A66" opacity=".3"/>
  <!-- notch -->
  <rect x="188" y="38" width="24" height="6" rx="3" fill="#0A1F13"/>
  <!-- floating elements -->
  <circle cx="90" cy="90" r="30" fill="#34D399" opacity=".15"/>
  <circle cx="90" cy="90" r="20" fill="#008A66" opacity=".2"/>
  <rect x="72" y="83" width="36" height="5" rx="2" fill="#008A66" opacity=".5"/>
  <rect x="76" y="93" width="26" height="5" rx="2" fill="#34D399" opacity=".4"/>
  <circle cx="310" cy="150" r="28" fill="#0A1F13" opacity=".12"/>
  <rect x="292" y="143" width="36" height="5" rx="2" fill="#008A66" opacity=".4"/>
  <rect x="296" y="153" width="26" height="5" rx="2" fill="#34D399" opacity=".4"/>

</svg>