<svg xmlns="http://www.w3.org/2000/svg" viewBox="0 0 400 240" width="400" height="240">
  <defs>
    <linearGradient id="bgauto2" x1="0%" y1="0%" x2="100%" y2="100%">
      <stop offset="0%" style="stop-color:#F0FBF7"/>
      <stop offset="100%" style="stop-color:#C8EFE3"/>
    </linearGradient>
  </defs>
  <rect width="400" height="240" fill="url(#bgauto2)" rx="16"/>
  
  <!-- delivery truck -->
  <!-- cargo box -->
  <rect x="50" y="80" width="200" height="110" rx="8" fill="#0A1F13" opacity=".7"/>
  <rect x="58" y="88" width="184" height="94" rx="5" fill="#008A66" opacity=".8"/>
  <!-- logo on box -->
  <rect x="90" y="112" width="110" height="46" rx="6" fill="#34D399" opacity=".3"/>
  <rect x="100" y="120" width="70" height="8" rx="3" fill="#fff" opacity=".4"/>
  <rect x="100" y="134" width="50" height="8" rx="3" fill="#fff" opacity=".3"/>
  <!-- cab -->
  <rect x="250" y="110" width="100" height="80" rx="10" fill="#008A66" opacity=".85"/>
  <!-- windshield -->
  <rect x="258" y="118" width="72" height="44" rx="8" fill="#E6F7F2" opacity=".5"/>
  <!-- wheels -->
  <circle cx="100" cy="192" r="22" fill="#0A1F13" opacity=".8"/>
  <circle cx="100" cy="192" r="12" fill="#34D399" opacity=".4"/>
  <circle cx="190" cy="192" r="22" fill="#0A1F13" opacity=".8"/>
  <circle cx="190" cy="192" r="12" fill="#34D399" opacity=".4"/>
  <circle cx="310" cy="192" r="22" fill="#0A1F13" opacity=".8"/>
  <circle cx="310" cy="192" r="12" fill="#34D399" opacity=".4"/>
  <!-- speed lines -->
  <line x1="355" y1="140" x2="390" y2="140" stroke="#34D399" stroke-width="3" opacity=".4" stroke-linecap="round"/>
  <line x1="360" y1="155" x2="395" y2="155" stroke="#34D399" stroke-width="2" opacity=".3" stroke-linecap="round"/>
  <!-- location pin top -->
  <circle cx="200" cy="44" r="16" fill="#008A66" opacity=".7"/>
  <path d="M200 44 L200 68" stroke="#008A66" stroke-width="3" stroke-linecap="round" opacity=".7"/>
  <circle cx="200" cy="40" r="6" fill="#fff" opacity=".6"/>

</svg>