<svg xmlns="http://www.w3.org/2000/svg" viewBox="0 0 400 240" width="400" height="240">
  <defs>
    <linearGradient id="bgauto3" x1="0%" y1="0%" x2="100%" y2="100%">
      <stop offset="0%" style="stop-color:#E6F7F2"/>
      <stop offset="100%" style="stop-color:#C8EFE3"/>
    </linearGradient>
  </defs>
  <rect width="400" height="240" fill="url(#bgauto3)" rx="16"/>
  
  <!-- garage / showroom floor -->
  <rect x="0" y="185" width="400" height="55" fill="#C8EFE3" opacity=".4"/>
  <!-- spotlights -->
  <path d="M100 0 L60 185 L140 185 Z" fill="#34D399" opacity=".07"/>
  <path d="M200 0 L160 185 L240 185 Z" fill="#34D399" opacity=".07"/>
  <path d="M300 0 L260 185 L340 185 Z" fill="#34D399" opacity=".07"/>
  <!-- sports car side view -->
  <!-- body -->
  <path d="M60 155 Q70 120 120 105 Q170 90 220 92 Q280 94 320 110 Q350 120 355 155 Z" fill="#008A66" opacity=".85"/>
  <!-- roof -->
  <path d="M130 105 Q160 72 230 70 Q280 70 305 105" fill="#0A1F13" opacity=".7"/>
  <!-- window -->
  <path d="M145 105 Q168 78 225 76 Q268 76 290 105" fill="#E6F7F2" opacity=".4"/>
  <!-- wheels -->
  <circle cx="130" cy="168" r="26" fill="#0A1F13" opacity=".8"/>
  <circle cx="130" cy="168" r="15" fill="#34D399" opacity=".35"/>
  <circle cx="130" cy="168" r="7" fill="#0A1F13" opacity=".5"/>
  <circle cx="290" cy="168" r="26" fill="#0A1F13" opacity=".8"/>
  <circle cx="290" cy="168" r="15" fill="#34D399" opacity=".35"/>
  <circle cx="290" cy="168" r="7" fill="#0A1F13" opacity=".5"/>
  <!-- headlight -->
  <ellipse cx="352" cy="140" rx="10" ry="7" fill="#34D399" opacity=".7"/>
  <!-- grill -->
  <path d="M344 148 Q360 148 364 160" fill="none" stroke="#34D399" stroke-width="2" opacity=".5"/>

</svg>