<svg xmlns="http://www.w3.org/2000/svg" viewBox="0 0 400 240" width="400" height="240">
  <defs>
    <linearGradient id="bgcon2" x1="0%" y1="0%" x2="100%" y2="100%">
      <stop offset="0%" style="stop-color:#F0FBF7"/>
      <stop offset="100%" style="stop-color:#C8EFE3"/>
    </linearGradient>
  </defs>
  <rect width="400" height="240" fill="url(#bgcon2)" rx="16"/>
  
  <!-- pie chart big -->
  <circle cx="190" cy="130" r="85" fill="#E6F7F2" opacity=".5"/>
  <!-- slices -->
  <path d="M190 130 L190 45 A85 85 0 0 1 264 83 Z" fill="#008A66" opacity=".8"/>
  <path d="M190 130 L264 83 A85 85 0 0 1 265 178 Z" fill="#34D399" opacity=".75"/>
  <path d="M190 130 L265 178 A85 85 0 0 1 120 205 Z" fill="#0A1F13" opacity=".5"/>
  <path d="M190 130 L120 205 A85 85 0 0 1 110 75 Z" fill="#008A66" opacity=".45"/>
  <path d="M190 130 L110 75 A85 85 0 0 1 190 45 Z" fill="#34D399" opacity=".55"/>
  <!-- center -->
  <circle cx="190" cy="130" r="38" fill="#fff" opacity=".6"/>
  <rect x="166" y="124" width="48" height="7" rx="2" fill="#0A1F13" opacity=".3"/>
  <rect x="172" y="136" width="36" height="7" rx="2" fill="#008A66" opacity=".3"/>
  <!-- legend -->
  <rect x="295" y="80" width="12" height="12" rx="2" fill="#008A66" opacity=".7"/>
  <rect x="295" y="100" width="12" height="12" rx="2" fill="#34D399" opacity=".7"/>
  <rect x="295" y="120" width="12" height="12" rx="2" fill="#0A1F13" opacity=".5"/>
  <rect x="313" y="83" width="50" height="6" rx="2" fill="#0A1F13" opacity=".2"/>
  <rect x="313" y="103" width="40" height="6" rx="2" fill="#0A1F13" opacity=".2"/>
  <rect x="313" y="123" width="45" height="6" rx="2" fill="#0A1F13" opacity=".2"/>

</svg>