<svg xmlns="http://www.w3.org/2000/svg" viewBox="0 0 400 240" width="400" height="240">
  <defs>
    <linearGradient id="bgecom1" x1="0%" y1="0%" x2="100%" y2="100%">
      <stop offset="0%" style="stop-color:#F0FBF7"/>
      <stop offset="100%" style="stop-color:#C8EFE3"/>
    </linearGradient>
  </defs>
  <rect width="400" height="240" fill="url(#bgecom1)" rx="16"/>
  
  <!-- shopping cart big -->
  <path d="M60 60 L80 60 L110 160 L300 160 L330 90 L90 90" fill="none" stroke="#008A66" stroke-width="8" stroke-linecap="round" stroke-linejoin="round" opacity=".7"/>
  <rect x="100" y="70" width="225" height="85" rx="6" fill="#008A66" opacity=".08"/>
  <!-- cart items -->
  <rect x="110" y="98" width="50" height="44" rx="6" fill="#34D399" opacity=".5"/>
  <rect x="168" y="98" width="50" height="44" rx="6" fill="#008A66" opacity=".5"/>
  <rect x="226" y="98" width="50" height="44" rx="6" fill="#34D399" opacity=".4"/>
  <!-- wheels -->
  <circle cx="140" cy="178" r="16" fill="#0A1F13" opacity=".6"/>
  <circle cx="140" cy="178" r="8" fill="#34D399" opacity=".4"/>
  <circle cx="280" cy="178" r="16" fill="#0A1F13" opacity=".6"/>
  <circle cx="280" cy="178" r="8" fill="#34D399" opacity=".4"/>
  <!-- price tag -->
  <rect x="270" y="32" width="80" height="36" rx="8" fill="#008A66" opacity=".8"/>
  <rect x="278" y="40" width="44" height="8" rx="3" fill="#fff" opacity=".5"/>
  <rect x="278" y="52" width="30" height="8" rx="3" fill="#34D399" opacity=".5"/>
  <circle cx="276" cy="50" r="5" fill="#fff" opacity=".4"/>

</svg>