<svg xmlns="http://www.w3.org/2000/svg" viewBox="0 0 400 240" width="400" height="240">
  <defs>
    <linearGradient id="bgind1" x1="0%" y1="0%" x2="100%" y2="100%">
      <stop offset="0%" style="stop-color:#E6F7F2"/>
      <stop offset="100%" style="stop-color:#C8EFE3"/>
    </linearGradient>
  </defs>
  <rect width="400" height="240" fill="url(#bgind1)" rx="16"/>
  
  <!-- factory building -->
  <rect x="40" y="100" width="320" height="110" rx="6" fill="#0A1F13" opacity=".65"/>
  <!-- chimneys -->
  <rect x="80" y="50" width="30" height="55" rx="4" fill="#0A1F13" opacity=".6"/>
  <rect x="140" y="65" width="25" height="40" rx="4" fill="#0A1F13" opacity=".5"/>
  <rect x="250" y="55" width="28" height="50" rx="4" fill="#0A1F13" opacity=".6"/>
  <!-- smoke -->
  <circle cx="95" cy="42" r="12" fill="#C8EFE3" opacity=".5"/>
  <circle cx="105" cy="32" r="10" fill="#C8EFE3" opacity=".4"/>
  <circle cx="115" cy="24" r="8" fill="#C8EFE3" opacity=".3"/>
  <circle cx="265" cy="46" r="11" fill="#C8EFE3" opacity=".4"/>
  <circle cx="275" cy="36" r="9" fill="#C8EFE3" opacity=".3"/>
  <!-- windows factory -->
  <rect x="60" y="115" width="35" height="30" rx="4" fill="#34D399" opacity=".3"/>
  <rect x="105" y="115" width="35" height="30" rx="4" fill="#34D399" opacity=".25"/>
  <rect x="160" y="110" width="80" height="40" rx="4" fill="#34D399" opacity=".2"/>
  <rect x="260" y="115" width="35" height="30" rx="4" fill="#34D399" opacity=".3"/>
  <rect x="305" y="115" width="35" height="30" rx="4" fill="#34D399" opacity=".25"/>
  <!-- door -->
  <rect x="177" y="155" width="46" height="55" rx="4" fill="#008A66" opacity=".35"/>
  <!-- gear -->
  <circle cx="340" cy="70" r="26" fill="none" stroke="#008A66" stroke-width="5" opacity=".5"/>
  <circle cx="340" cy="70" r="12" fill="#34D399" opacity=".3"/>
  <rect x="334" y="38" width="12" height="12" rx="2" fill="#008A66" opacity=".4"/>
  <rect x="334" y="90" width="12" height="12" rx="2" fill="#008A66" opacity=".4"/>
  <rect x="308" y="64" width="12" height="12" rx="2" fill="#008A66" opacity=".4"/>
  <rect x="360" y="64" width="12" height="12" rx="2" fill="#008A66" opacity=".4"/>
  <!-- ground -->
  <rect x="0" y="210" width="400" height="30" fill="#C8EFE3" opacity=".3"/>

</svg>