<svg xmlns="http://www.w3.org/2000/svg" viewBox="0 0 400 240" width="400" height="240">
  <defs>
    <linearGradient id="bgr3" x1="0%" y1="0%" x2="100%" y2="100%">
      <stop offset="0%" style="stop-color:#E6F7F2"/>
      <stop offset="100%" style="stop-color:#C8EFE3"/>
    </linearGradient>
  </defs>
  <rect width="400" height="240" fill="url(#bgr3)" rx="16"/>
  
  <!-- background circle -->
  <circle cx="200" cy="120" r="100" fill="#008A66" opacity=".12"/>
  <!-- big mug top view -->
  <circle cx="200" cy="120" r="70" fill="#fff" opacity=".7"/>
  <circle cx="200" cy="120" r="55" fill="#008A66" opacity=".15"/>
  <circle cx="200" cy="120" r="42" fill="#0A1F13" opacity=".75"/>
  <!-- latte art -->
  <path d="M200 90 Q218 105 200 120 Q182 135 200 150" fill="none" stroke="#fff" stroke-width="2.5" opacity=".5"/>
  <ellipse cx="200" cy="120" rx="18" ry="10" fill="none" stroke="#fff" stroke-width="1.5" opacity=".3"/>
  <!-- handle -->
  <path d="M270 100 Q300 100 300 120 Q300 140 270 140" fill="none" stroke="#fff" stroke-width="8" opacity=".5"/>
  <!-- coffee beans scattered -->
  <ellipse cx="90" cy="80" rx="12" ry="8" fill="#0A1F13" opacity=".6" transform="rotate(-20,90,80)"/>
  <line x1="90" y1="74" x2="90" y2="86" stroke="#34D399" stroke-width="1.5" opacity=".5"/>
  <ellipse cx="310" cy="75" rx="12" ry="8" fill="#0A1F13" opacity=".6" transform="rotate(15,310,75)"/>
  <line x1="310" y1="69" x2="310" y2="81" stroke="#34D399" stroke-width="1.5" opacity=".5"/>
  <ellipse cx="75" cy="165" rx="12" ry="8" fill="#0A1F13" opacity=".5" transform="rotate(30,75,165)"/>
  <ellipse cx="320" cy="160" rx="12" ry="8" fill="#0A1F13" opacity=".5" transform="rotate(-10,320,160)"/>
  <!-- spoon -->
  <line x1="120" y1="190" x2="280" y2="50" stroke="#34D399" stroke-width="3" opacity=".4" stroke-linecap="round"/>
  <ellipse cx="118" cy="192" rx="10" ry="6" fill="#34D399" opacity=".5" transform="rotate(-45,118,192)"/>

</svg>