<svg xmlns="http://www.w3.org/2000/svg" viewBox="0 0 400 240" width="400" height="240">
  <defs>
    <linearGradient id="bgret3" x1="0%" y1="0%" x2="100%" y2="100%">
      <stop offset="0%" style="stop-color:#E6F7F2"/>
      <stop offset="100%" style="stop-color:#C8EFE3"/>
    </linearGradient>
  </defs>
  <rect width="400" height="240" fill="url(#bgret3)" rx="16"/>
  
  <!-- back wall -->
  <rect x="30" y="30" width="340" height="180" rx="10" fill="#fff" opacity=".4"/>
  <!-- shelves -->
  <rect x="30" y="80" width="340" height="10" rx="4" fill="#0A1F13" opacity=".5"/>
  <rect x="30" y="140" width="340" height="10" rx="4" fill="#0A1F13" opacity=".5"/>
  <rect x="30" y="200" width="340" height="10" rx="4" fill="#0A1F13" opacity=".4"/>
  <!-- shelf 1 items -->
  <rect x="50" y="55" width="28" height="26" rx="4" fill="#008A66" opacity=".7"/>
  <rect x="86" y="60" width="22" height="21" rx="4" fill="#34D399" opacity=".6"/>
  <rect x="116" y="52" width="30" height="29" rx="4" fill="#0A1F13" opacity=".5"/>
  <rect x="154" y="57" width="24" height="24" rx="4" fill="#008A66" opacity=".5"/>
  <rect x="186" y="54" width="26" height="27" rx="4" fill="#34D399" opacity=".7"/>
  <rect x="220" y="59" width="22" height="22" rx="4" fill="#008A66" opacity=".6"/>
  <rect x="250" y="53" width="32" height="28" rx="4" fill="#0A1F13" opacity=".4"/>
  <rect x="290" y="57" width="26" height="24" rx="4" fill="#34D399" opacity=".5"/>
  <!-- shelf 2 items -->
  <rect x="45" y="113" width="24" height="28" rx="4" fill="#34D399" opacity=".6"/>
  <rect x="77" y="110" width="30" height="31" rx="4" fill="#008A66" opacity=".7"/>
  <rect x="115" y="115" width="26" height="26" rx="4" fill="#0A1F13" opacity=".5"/>
  <rect x="149" y="112" width="28" height="29" rx="4" fill="#34D399" opacity=".5"/>
  <rect x="185" y="114" width="24" height="27" rx="4" fill="#008A66" opacity=".6"/>
  <rect x="217" y="110" width="32" height="31" rx="4" fill="#0A1F13" opacity=".4"/>
  <rect x="257" y="113" width="26" height="28" rx="4" fill="#34D399" opacity=".7"/>
  <rect x="291" y="115" width="28" height="26" rx="4" fill="#008A66" opacity=".5"/>
  <!-- shelf 3 items -->
  <rect x="55" y="170" width="30" height="32" rx="4" fill="#008A66" opacity=".6"/>
  <rect x="93" y="173" width="24" height="29" rx="4" fill="#34D399" opacity=".5"/>
  <rect x="125" y="169" width="28" height="33" rx="4" fill="#0A1F13" opacity=".4"/>
  <rect x="161" y="172" width="26" height="30" rx="4" fill="#008A66" opacity=".7"/>
  <rect x="195" y="170" width="30" height="32" rx="4" fill="#34D399" opacity=".6"/>
  <rect x="233" y="173" width="24" height="29" rx="4" fill="#0A1F13" opacity=".5"/>
  <rect x="265" y="169" width="32" height="33" rx="4" fill="#008A66" opacity=".5"/>
  <rect x="305" y="172" width="26" height="30" rx="4" fill="#34D399" opacity=".6"/>

</svg>