<svg xmlns="http://www.w3.org/2000/svg" viewBox="0 0 400 240" width="400" height="240">
  <defs>
    <linearGradient id="bgtech1" x1="0%" y1="0%" x2="100%" y2="100%">
      <stop offset="0%" style="stop-color:#E6F7F2"/>
      <stop offset="100%" style="stop-color:#C8EFE3"/>
    </linearGradient>
  </defs>
  <rect width="400" height="240" fill="url(#bgtech1)" rx="16"/>
  
  <!-- laptop -->
  <rect x="80" y="80" width="240" height="150" rx="10" fill="#0A1F13" opacity=".8"/>
  <rect x="88" y="88" width="224" height="134" rx="6" fill="#0A1F13"/>
  <!-- screen content -->
  <rect x="96" y="96" width="208" height="118" rx="4" fill="#0F2E1E"/>
  <!-- code lines -->
  <rect x="104" y="106" width="80" height="5" rx="2" fill="#34D399" opacity=".7"/>
  <rect x="112" y="116" width="110" height="5" rx="2" fill="#008A66" opacity=".6"/>
  <rect x="112" y="126" width="90" height="5" rx="2" fill="#34D399" opacity=".5"/>
  <rect x="104" y="136" width="60" height="5" rx="2" fill="#008A66" opacity=".7"/>
  <rect x="112" y="146" width="120" height="5" rx="2" fill="#34D399" opacity=".4"/>
  <rect x="112" y="156" width="80" height="5" rx="2" fill="#008A66" opacity=".6"/>
  <rect x="104" y="166" width="100" height="5" rx="2" fill="#34D399" opacity=".6"/>
  <rect x="112" y="176" width="70" height="5" rx="2" fill="#008A66" opacity=".5"/>
  <rect x="104" y="186" width="50" height="5" rx="2" fill="#34D399" opacity=".7"/>
  <!-- cursor blink -->
  <rect x="158" y="186" width="3" height="12" rx="1" fill="#34D399" opacity=".9"/>
  <!-- base -->
  <rect x="60" y="230" width="280" height="8" rx="4" fill="#0A1F13" opacity=".5"/>
  <rect x="150" y="222" width="100" height="10" rx="3" fill="#0A1F13" opacity=".4"/>

</svg>