<?xml version="1.0" encoding="utf-8"?>
<svg version="1.1" id="Layer_1" xmlns="http://www.w3.org/2000/svg" xmlns:xlink="http://www.w3.org/1999/xlink" x="0px" y="0px"
	 viewBox="295 298 680 175" style="enable-background:new 0 0 1280 769;" xml:space="preserve">
<style type="text/css">
	.st1{fill:#FFFFFF;}
	.st2{fill:url(#SVGID_1_);}
	.st3{fill:url(#SVGID_2_);}
	.st4{fill:url(#SVGID_3_);}
	.st5{fill:url(#SVGID_4_);}
</style>
<g>
	<g>
		<g>
			<g>
				<g>
					<path class="st1" d="M512.64,320.89v60.48c0,9.51-2.38,16.71-7.13,21.59c-4.76,4.88-11.6,7.32-20.52,7.32
						c-2.78,0-5.35-0.32-7.7-0.95c-2.36-0.63-4.65-1.64-6.88-3.03c-2.23-1.39-4.44-3.18-6.63-5.37c-2.19-2.19-4.5-4.88-6.94-8.08
						l13.38-12.37c2.53,3.87,5.05,6.86,7.58,8.96c2.52,2.11,5.39,3.16,8.59,3.16c3.11,0,5.32-1.03,6.63-3.09
						c1.3-2.06,1.96-4.82,1.96-8.27v-60.35H512.64z"/>
				</g>
			</g>
			<g>
				<g>
					<path class="st1" d="M560.36,409.78c-4.21-0.59-8.1-1.7-11.68-3.35c-3.58-1.64-6.71-3.77-9.41-6.38
						c-2.69-2.61-4.82-5.7-6.38-9.28c-1.56-3.58-2.42-7.55-2.59-11.93v-57.95h17.68v56.44c0,2.44,0.44,4.57,1.32,6.38
						c0.88,1.81,2.06,3.33,3.54,4.55c1.47,1.22,3.22,2.17,5.24,2.84c2.02,0.68,4.17,1.1,6.44,1.26c0.42,0.08,0.67,0.13,0.76,0.13
						c0.08,0,0.21,0,0.38,0h1.77c0.17,0,0.29,0,0.38,0c0.08,0,0.34-0.04,0.76-0.13c2.27-0.17,4.42-0.59,6.44-1.26
						c2.02-0.67,3.79-1.62,5.3-2.84c1.52-1.22,2.71-2.73,3.6-4.55c0.88-1.81,1.32-3.93,1.32-6.38v-56.44h17.68v57.95
						c-0.17,4.46-1.03,8.46-2.59,11.99c-1.56,3.53-3.68,6.63-6.38,9.28c-2.69,2.65-5.87,4.8-9.53,6.44
						c-3.66,1.64-7.64,2.71-11.93,3.22l-4.17,0.38h-1.89C564.24,410.16,562.21,410.03,560.36,409.78z"/>
				</g>
			</g>
			<g>
				<g>
					<path class="st1" d="M672.23,344.5c-1.94-2.44-4.17-4.1-6.69-4.99c-2.53-0.88-5.39-1.32-8.59-1.32c-3.87,0-6.9,0.65-9.09,1.96
						c-2.19,1.31-3.28,2.93-3.28,4.86c0,1.09,0.55,2.13,1.64,3.09c1.09,0.97,2.46,1.87,4.1,2.71c1.64,0.84,3.45,1.66,5.43,2.46
						c1.98,0.8,3.89,1.54,5.74,2.21h-0.13c2.44,0.84,5.22,1.96,8.33,3.35c3.11,1.39,6.04,3.16,8.78,5.3
						c2.73,2.15,5.05,4.76,6.94,7.83c1.89,3.07,2.84,6.71,2.84,10.92c0,4.38-0.82,8.25-2.46,11.62c-1.64,3.37-3.91,6.19-6.82,8.46
						c-2.9,2.27-6.31,4-10.23,5.18c-3.91,1.18-8.14,1.77-12.69,1.77c-6.31,0-12.35-1.49-18.12-4.48
						c-5.77-2.99-11.55-7.72-17.36-14.2l14.52-11.87c3.11,4.38,6.42,7.58,9.91,9.6c3.49,2.02,7.22,3.03,11.17,3.03
						c4.21,0,7.66-0.69,10.35-2.08c2.69-1.39,4.04-3.18,4.04-5.37c0-1.6-0.57-3.01-1.7-4.23c-1.14-1.22-2.57-2.33-4.29-3.35
						c-1.73-1.01-3.66-1.89-5.81-2.65c-2.15-0.76-4.23-1.47-6.25-2.15l-2.53-1.01c-2.86-1.01-5.68-2.1-8.46-3.28
						c-2.78-1.18-5.28-2.71-7.51-4.61c-2.23-1.89-4.04-4.23-5.43-7.01c-1.39-2.78-2.08-6.23-2.08-10.35c0-3.28,0.57-6.46,1.7-9.53
						c1.14-3.07,2.92-5.76,5.37-8.08c2.44-2.31,5.56-4.19,9.34-5.62c3.79-1.43,8.38-2.15,13.76-2.15c6.06,0,11.81,1.26,17.23,3.79
						c5.43,2.53,10.88,7.07,16.35,13.64l-14.39,9.98L672.23,344.5z"/>
				</g>
			</g>
			<g>
				<g>
					<path class="st1" d="M791.04,364.58c0,5.89-0.88,11.57-2.65,17.05c-1.77,5.47-4.4,10.29-7.89,14.46
						c-3.49,4.17-7.83,7.51-13,10.04c-5.18,2.52-11.22,3.79-18.12,3.79c-6.82,0-12.81-1.26-17.99-3.79
						c-5.18-2.53-9.49-5.87-12.94-10.04c-3.45-4.17-6.06-8.98-7.83-14.46c-1.77-5.47-2.65-11.15-2.65-17.05
						c0-5.81,0.88-11.41,2.65-16.79c1.77-5.39,4.38-10.16,7.83-14.33c3.45-4.17,7.77-7.49,12.94-9.98
						c5.18-2.48,11.17-3.72,17.99-3.72c6.9,0,12.94,1.24,18.12,3.72c5.18,2.48,9.51,5.81,13,9.98c3.49,4.17,6.12,8.94,7.89,14.33
						C790.16,353.17,791.04,358.77,791.04,364.58z M773.24,364.7c0-3.62-0.5-7.07-1.51-10.35c-1.01-3.28-2.51-6.19-4.48-8.71
						c-1.98-2.52-4.46-4.52-7.45-6c-2.99-1.47-6.46-2.21-10.42-2.21c-3.87,0-7.28,0.74-10.23,2.21c-2.95,1.47-5.41,3.45-7.39,5.93
						c-1.98,2.48-3.47,5.39-4.48,8.71c-1.01,3.33-1.51,6.8-1.51,10.42c0,3.71,0.5,7.22,1.51,10.54c1.01,3.33,2.5,6.25,4.48,8.77
						c1.98,2.53,4.44,4.53,7.39,6c2.94,1.47,6.35,2.21,10.23,2.21c3.96,0,7.43-0.74,10.42-2.21c2.99-1.47,5.47-3.47,7.45-6
						c1.98-2.52,3.47-5.45,4.48-8.77C772.73,371.92,773.24,368.41,773.24,364.7z"/>
				</g>
			</g>
			<g>
				<g>
					<path class="st1" d="M891.8,364.58c0,5.89-0.88,11.57-2.65,17.05c-1.77,5.47-4.4,10.29-7.89,14.46
						c-3.49,4.17-7.83,7.51-13,10.04c-5.18,2.52-11.22,3.79-18.12,3.79c-6.82,0-12.81-1.26-17.99-3.79
						c-5.18-2.53-9.49-5.87-12.94-10.04c-3.45-4.17-6.06-8.98-7.83-14.46c-1.77-5.47-2.65-11.15-2.65-17.05
						c0-5.81,0.88-11.41,2.65-16.79c1.77-5.39,4.38-10.16,7.83-14.33c3.45-4.17,7.77-7.49,12.94-9.98
						c5.18-2.48,11.17-3.72,17.99-3.72c6.9,0,12.94,1.24,18.12,3.72c5.18,2.48,9.51,5.81,13,9.98c3.49,4.17,6.12,8.94,7.89,14.33
						C890.91,353.17,891.8,358.77,891.8,364.58z M873.99,364.7c0-3.62-0.5-7.07-1.51-10.35s-2.51-6.19-4.48-8.71
						c-1.98-2.52-4.46-4.52-7.45-6c-2.99-1.47-6.46-2.21-10.42-2.21c-3.87,0-7.28,0.74-10.23,2.21c-2.95,1.47-5.41,3.45-7.39,5.93
						c-1.98,2.48-3.47,5.39-4.48,8.71c-1.01,3.33-1.51,6.8-1.51,10.42c0,3.71,0.51,7.22,1.51,10.54c1.01,3.33,2.5,6.25,4.48,8.77
						c1.98,2.53,4.44,4.53,7.39,6c2.94,1.47,6.35,2.21,10.23,2.21c3.96,0,7.43-0.74,10.42-2.21c2.99-1.47,5.47-3.47,7.45-6
						c1.98-2.52,3.47-5.45,4.48-8.77C873.49,371.92,873.99,368.41,873.99,364.7z"/>
				</g>
			</g>
			<g>
				<g>
					<path class="st1" d="M938.14,375.43h-10.99v33.84h-17.68v-88.38h34.22c3.7,0,7.2,0.71,10.48,2.15s6.17,3.39,8.65,5.87
						c2.48,2.48,4.44,5.39,5.87,8.71c1.43,3.33,2.15,6.88,2.15,10.67c0,5.05-1.26,9.66-3.79,13.83c-2.52,4.17-5.81,7.43-9.85,9.79
						l19.57,37.37H956.7L938.14,375.43z M927.15,357.76h16.54c2.61,0,4.84-0.9,6.69-2.71c1.85-1.81,2.78-4.06,2.78-6.76
						c0-2.69-0.93-4.97-2.78-6.82c-1.85-1.85-4.08-2.82-6.69-2.9h-16.54V357.76z"/>
				</g>
			</g>
		</g>
	</g>
	<g>
		<linearGradient id="SVGID_1_" gradientUnits="userSpaceOnUse" x1="468.4988" y1="446.346" x2="282.4265" y2="327.9052">
			<stop  offset="0" style="stop-color:#26F0C8"/>
			<stop  offset="0.35" style="stop-color:#00D4AA"/>
			<stop  offset="0.65" style="stop-color:#00A88A"/>
			<stop  offset="1" style="stop-color:#007B68"/>
		</linearGradient>
		<path class="st2" d="M415.24,304.31v106.57h-33.98c0,29.72-24.1,53.81-53.82,53.81v-53.81h53.81V304.31H415.24z"/>
		<linearGradient id="SVGID_2_" gradientUnits="userSpaceOnUse" x1="353.3041" y1="302.1046" x2="313.1372" y2="371.7958">
			<stop  offset="0" style="stop-color:#5FFAD9"/>
			<stop  offset="0.4" style="stop-color:#26F0C8"/>
			<stop  offset="0.75" style="stop-color:#00BFA0"/>
			<stop  offset="1" style="stop-color:#007B68"/>
		</linearGradient>
		<path class="st3" d="M381.25,338.3h-44.04c-18.77,0-33.98-15.22-33.98-33.99h44.04C366.04,304.31,381.25,319.53,381.25,338.3z"/>
	</g>
	<linearGradient id="SVGID_3_" gradientUnits="userSpaceOnUse" x1="381.3869" y1="456.3629" x2="330.9208" y2="421.6889">
		<stop  offset="0" style="stop-color:#52F7D2"/>
		<stop  offset="0.3" style="stop-color:#1DE6BE"/>
		<stop  offset="0.7" style="stop-color:#00BFA0"/>
		<stop  offset="1" style="stop-color:#008F73"/>
	</linearGradient>
	<path class="st4" d="M381.26,410.88c0,29.72-24.1,53.81-53.82,53.81c35.65-13.51,20.87-51.3,53.81-53.81H381.26z"/>
	<linearGradient id="SVGID_4_" gradientUnits="userSpaceOnUse" x1="374.1686" y1="272.638" x2="324.3892" y2="348.5088">
		<stop  offset="0" style="stop-color:#7DFDE1"/>
		<stop  offset="0.45" style="stop-color:#26F0C8"/>
		<stop  offset="0.8" style="stop-color:#00BFA0"/>
		<stop  offset="1" style="stop-color:#007B68"/>
	</linearGradient>
	<path class="st5" d="M381.25,338.3c-28.35-18.55-59.92-13.12-78.02-33.99h44.04C366.04,304.31,381.25,319.53,381.25,338.3z"/>
</g>
</svg>
